<svg xmlns="http://www.w3.org/2000/svg" version="1" viewBox="0 0 50 50" enable-background="new 0 0 50 50" width="50" height="50" style="fill: rgb(255, 255, 255);">
    <path style="text-indent:0;text-align:start;line-height:normal;text-transform:none;block-progression:tb;-inkscape-font-specification:Bitstream Vera Sans" d="M 39 0 L 39 2 L 46.5625 2 L 34 14.5625 L 30.71875 11.28125 L 30 10.59375 L 29.28125 11.28125 L 18 22.5625 L 14.71875 19.28125 L 14 18.59375 L 13.28125 19.28125 L 0.28125 32.28125 L 1.71875 33.71875 L 14 21.4375 L 17.28125 24.71875 L 18 25.40625 L 18.71875 24.71875 L 30 13.4375 L 33.28125 16.71875 L 34 17.40625 L 34.71875 16.71875 L 48 3.4375 L 48 11 L 50 11 L 50 1 L 50 0 L 49 0 L 39 0 z M 42 14 L 42 50 L 44 50 L 44 14 L 42 14 z M 48 15 L 48 50 L 50 50 L 50 15 L 48 15 z M 30 20 L 30 50 L 32 50 L 32 20 L 30 20 z M 36 20 L 36 50 L 38 50 L 38 20 L 36 20 z M 24 24 L 24 50 L 26 50 L 26 24 L 24 24 z M 12 28 L 12 50 L 14 50 L 14 28 L 12 28 z M 18 30 L 18 50 L 20 50 L 20 30 L 18 30 z M 6 34 L 6 50 L 8 50 L 8 34 L 6 34 z M 0 38 L 0 50 L 2 50 L 2 38 L 0 38 z"/>
</svg>